<?xml version="1.0" standalone="no"?>
<!DOCTYPE svg PUBLIC "-//W3C//DTD SVG 20010904//EN"
 "http://www.w3.org/TR/2001/REC-SVG-20010904/DTD/svg10.dtd">
<svg version="1.0" xmlns="http://www.w3.org/2000/svg"
 width="382.000000pt" height="459.000000pt" viewBox="0 0 382.000000 459.000000"
 preserveAspectRatio="xMidYMid meet">
<metadata>
Created by potrace 1.13, written by Peter Selinger 2001-2015
</metadata>
<g transform="translate(0.000000,459.000000) scale(0.100000,-0.100000)"
fill="#ff851b" stroke="none">
<path d="M1995 4521 c-27 -10 -99 -43 -160 -74 -127 -65 -289 -129 -460 -182
-248 -77 -250 -80 -264 -361 -9 -198 -23 -264 -62 -284 -26 -15 -27 -14 -80
40 -27 28 -56 50 -66 50 -10 0 -49 -32 -86 -72 -51 -54 -71 -68 -79 -60 -8 8
-15 78 -19 191 -8 193 -12 221 -35 221 -26 0 -65 -32 -84 -70 -127 -248 -252
-1803 -169 -2094 26 -93 114 -131 294 -130 134 0 254 25 426 87 274 99 483
226 760 458 l117 98 6 98 c4 54 20 364 36 688 33 643 51 913 78 1105 9 69 17
160 17 203 0 66 -3 81 -19 93 -27 19 -91 17 -151 -5z"/>
<path d="M2700 3985 c-30 -36 -41 -115 -50 -337 -9 -232 -10 -244 -36 -383
-120 -636 -606 -1248 -1229 -1546 -234 -112 -450 -170 -636 -170 -180 0 -306
46 -401 148 -144 156 -165 168 -193 113 -19 -36 -19 -114 -1 -201 37 -172 135
-265 341 -320 115 -32 362 -32 527 -1 194 36 426 113 611 201 334 159 837 627
1100 1023 174 261 262 558 260 878 -1 221 -34 350 -124 485 -75 112 -135 151
-169 110z"/>
<path d="M1745 1386 c-445 -226 -559 -259 -958 -275 -117 -5 -220 -12 -229
-16 -66 -26 72 -80 246 -95 198 -17 508 15 736 76 52 14 186 64 298 111 112
47 205 83 206 82 2 -2 101 -159 221 -349 294 -465 409 -624 548 -757 70 -67
120 -94 212 -113 236 -49 512 143 598 415 31 97 30 236 -2 317 -50 129 -166
239 -289 274 -71 21 -196 14 -267 -14 -57 -22 -141 -72 -233 -137 -34 -24 -81
-49 -105 -56 -48 -13 -24 -35 -192 176 -189 237 -450 516 -481 514 -5 0 -144
-69 -309 -153z"/>
</g>
</svg>
