<?xml version="1.0" encoding="utf-8"?>
<!-- Generator: Adobe Illustrator 20.0.0, SVG Export Plug-In . SVG Version: 6.00 Build 0)  -->
<svg version="1.1" id="Layer_1" xmlns="http://www.w3.org/2000/svg" xmlns:xlink="http://www.w3.org/1999/xlink" x="0px" y="0px"
     viewBox="0 0 160 160" style="enable-background:new 0 0 160 160;" xml:space="preserve">
    <defs>
        <linearGradient id="grad1" x1="0%" y1="0%" x2="100%" y2="0%" gradientTransform="rotate(110)">
          <stop offset="0%" style="stop-color:#00ffcd;stop-opacity:1" />
          <stop offset="100%" style="stop-color:#00dde4;stop-opacity:1" />
        </linearGradient>
    </defs>
<style type="text/css">
    .st0{fill:#00B373;}
    .st1{fill: url(#grad1);/*#00ffcd;*/}
    .st2{fill-rule:evenodd;clip-rule:evenodd;fill:transparent;}
</style>
<g>
    <!-- <rect y="0" class="st0" width="160" height="160"/> -->
    <g id="_x35_KEXkt_3_">
        <g>
            <path class="st1" d="M74.2,25.9c2.9,0,5.7,0,8.6,0c1.5,0.2,3,0.4,4.4,0.7c13,2.8,22.8,10,29.3,21.6c4.6,8.2,6.2,17,5.1,26.3
                c-0.8,6.7-3,13.1-5.9,19.2c-7.9,16.9-19,31.6-31.7,45.3c-1,1.1-2.3,1.9-3.8,2.4c-1.2,0-2.4,0-3.6,0c-1.8-0.6-3.2-1.7-4.4-3
                c-8.6-9.3-16.4-19.3-23.2-30.1c-4.9-7.9-9.2-16.1-11.9-25.1c-2.3-7.4-3.1-15-1.3-22.6c3.9-17.1,14.3-28.2,31.1-33.3
                C69.4,26.6,71.8,26.3,74.2,25.9z M78.6,98c16.1-0.3,28.7-12.8,28.7-28.8c0-17-13.8-28.8-28.9-28.7c-14.7,0.1-28.5,11.7-28.6,28.7
                C49.8,85.3,62.5,97.7,78.6,98z"/>
            <!-- <path class="st2" d="M78.5,54.7c8.1-0.3,14.7,6.9,14.6,14.6c-0.2,8.1-6.5,14.4-14.6,14.5c-7.6,0.1-14.6-6.6-14.5-14.7
                C64,61.5,70.6,54.4,78.5,54.7z"/> -->
        </g>
    </g>
</g>
</svg>
